<?xml version="1.0" standalone="no"?>
<!DOCTYPE svg PUBLIC "-//W3C//DTD SVG 20010904//EN"
 "http://www.w3.org/TR/2001/REC-SVG-20010904/DTD/svg10.dtd">
<svg version="1.0" xmlns="http://www.w3.org/2000/svg"
 width="802.000000pt" height="802.000000pt" viewBox="0 0 802.000000 802.000000"
 preserveAspectRatio="xMidYMid meet">
<metadata>
Created by potrace 1.11, written by Peter Selinger 2001-2013
</metadata>
<g transform="translate(0.000000,802.000000) scale(0.100000,-0.100000)"
fill="#000000" stroke="none">
<path d="M4740 7490 c-113 -5 -284 -16 -380 -25 -474 -41 -607 -42 -995 -10
-201 17 -292 16 -536 -4 -127 -11 -243 -4 -359 20 -72 15 -350 6 -490 -16
-144 -22 -307 -59 -420 -95 -148 -47 -267 -148 -346 -294 -15 -27 -42 -63 -61
-79 -65 -57 -133 -237 -133 -351 l0 -51 -60 -29 c-87 -41 -186 -129 -246 -217
-128 -188 -154 -395 -93 -721 53 -281 51 -365 -12 -588 -17 -61 -22 -118 -29
-310 -5 -157 -13 -260 -24 -310 -20 -87 -22 -148 -31 -795 -8 -520 0 -699 37
-910 18 -101 21 -155 20 -345 -1 -124 3 -271 9 -328 21 -217 96 -367 247 -495
61 -51 181 -117 248 -137 l41 -12 6 -117 c7 -133 24 -207 72 -306 90 -185 253
-310 475 -363 70 -17 132 -21 355 -26 201 -4 344 -13 560 -36 255 -27 338 -32
690 -37 410 -6 857 7 1035 29 68 9 297 11 795 9 704 -2 877 3 1110 35 421 58
653 298 680 705 l7 104 73 28 c138 52 262 149 339 266 86 129 115 232 123 421
3 74 11 154 19 177 46 141 46 915 0 1403 -20 214 -37 662 -30 787 3 54 14 144
25 200 33 181 52 399 53 633 1 191 -2 246 -22 360 -12 74 -31 201 -42 283 -33
236 -83 362 -188 470 -62 64 -178 140 -273 179 l-76 31 -7 96 c-16 234 -70
366 -200 497 -67 67 -98 89 -176 127 -117 57 -228 83 -385 91 -130 7 -350 31
-430 47 -70 13 -727 19 -975 9z m-1782 -436 l833 -7 -43 -19 c-24 -11 -150
-62 -281 -114 -395 -156 -712 -302 -928 -427 -171 -99 -329 -206 -329 -223 0
-30 32 -419 35 -422 1 -1 22 9 46 23 24 14 79 36 122 50 170 54 402 16 469
-77 20 -28 23 -44 22 -108 -2 -78 -26 -190 -49 -226 -8 -12 -26 -25 -42 -28
-15 -4 -78 -29 -138 -55 -119 -52 -200 -73 -455 -120 -91 -17 -237 -51 -325
-76 -225 -64 -332 -85 -472 -92 -191 -9 -298 20 -380 104 -23 24 -49 65 -58
91 -9 26 -21 55 -26 64 -17 34 -10 345 12 536 l22 183 45 50 c79 88 178 122
390 135 61 4 112 10 112 14 0 3 -9 55 -20 116 -76 404 -5 570 275 638 11 3 90
3 175 1 85 -3 530 -8 988 -11z m3335 -4 c122 -38 197 -107 231 -214 23 -68 21
-237 -4 -381 -11 -64 -20 -125 -20 -134 0 -16 15 -19 118 -24 138 -8 227 -28
281 -61 57 -36 58 -44 15 -79 -22 -18 -71 -61 -109 -98 -113 -106 -191 -122
-319 -65 l-53 23 -53 -86 c-64 -103 -113 -157 -156 -171 -26 -9 -44 -7 -95 10
-119 41 -179 13 -334 -154 -55 -59 -117 -116 -137 -127 -61 -31 -146 -26 -248
17 -141 59 -137 58 -173 43 -18 -7 -66 -46 -108 -85 -153 -145 -269 -199 -429
-199 -79 0 -102 4 -137 22 -51 28 -96 82 -112 133 -8 26 -13 199 -17 530 l-5
490 21 0 c55 0 249 -34 286 -50 52 -22 84 -65 119 -160 15 -41 50 -118 76
-170 38 -73 59 -102 91 -124 l41 -30 24 30 c57 67 65 137 37 285 -28 148 -5
273 73 399 19 30 87 106 151 168 l116 113 -24 72 c-12 40 -25 78 -27 85 -4 9
81 12 405 12 382 0 414 -1 475 -20z m-1068 -27 c-13 -32 -261 -489 -272 -502
-2 -3 -38 30 -80 72 -137 139 -270 177 -417 121 -14 -6 -16 11 -16 170 l0 176
400 0 400 0 -15 -37z m-1040 -50 c-6 -79 -35 -664 -56 -1118 -15 -322 -2 -584
34 -698 93 -291 351 -481 597 -439 106 18 187 63 296 163 106 97 183 142 324
190 110 36 140 35 205 -12 l44 -32 48 18 c38 14 76 46 178 150 153 155 179
169 300 158 67 -5 77 -4 117 20 24 14 75 54 113 87 91 80 144 110 227 131 70
18 133 50 187 95 85 71 180 235 205 355 l14 64 20 -45 c42 -92 54 -183 59
-440 4 -192 0 -309 -17 -540 -23 -307 -31 -605 -32 -1192 l-1 -346 -48 35
c-84 60 -175 86 -319 91 -110 3 -132 1 -182 -18 -80 -30 -102 -59 -94 -130 3
-30 8 -94 12 -142 l7 -87 -48 -28 c-205 -121 -447 -330 -536 -463 -47 -71 -95
-178 -101 -225 l-3 -30 310 -43 c171 -24 320 -45 333 -48 l22 -4 -24 -49 c-62
-122 -228 -236 -404 -277 -84 -20 -248 -23 -282 -4 -13 7 -68 55 -121 105
-101 97 -165 133 -213 121 -35 -9 -90 -59 -119 -109 -34 -58 -127 -144 -183
-168 -147 -65 -309 -7 -379 136 -29 59 -53 198 -105 600 -44 341 -60 567 -66
890 -2 159 -9 306 -14 326 -11 38 -25 49 -64 49 -20 0 -29 -15 -69 -127 -69
-192 -69 -192 -72 -483 -1 -146 -5 -384 -10 -530 -8 -286 -3 -390 41 -770 28
-250 39 -294 93 -377 84 -130 256 -217 456 -230 250 -16 465 83 519 241 l12
35 80 -60 c223 -169 448 -204 615 -98 69 44 139 123 300 339 220 294 387 537
400 581 10 33 10 45 -3 73 -28 57 -63 66 -352 92 -144 13 -264 23 -268 24 -5
0 -8 12 -8 28 0 23 10 32 68 64 61 33 93 42 288 77 307 54 522 86 530 78 11
-11 33 -479 35 -742 1 -227 1 -231 -26 -313 -45 -135 -131 -211 -271 -240 -27
-6 -103 -14 -167 -18 -137 -8 -128 8 -96 -165 27 -142 29 -292 6 -371 -49
-164 -211 -242 -462 -222 -55 4 -271 8 -480 9 -209 1 -452 7 -540 13 -479 34
-888 38 -1075 9 -44 -6 -215 -11 -410 -12 -184 -1 -425 -6 -535 -13 -110 -6
-362 -19 -560 -27 -584 -25 -767 -1 -884 116 -87 87 -110 238 -71 469 12 74
24 137 26 139 2 2 34 -24 71 -59 129 -118 289 -197 433 -215 104 -12 369 54
522 131 198 99 324 222 442 431 158 279 185 478 93 684 -36 81 -163 265 -227
329 -66 66 -141 111 -222 135 -32 9 -58 20 -58 25 0 16 90 127 151 187 137
132 322 240 487 284 66 18 89 29 111 55 73 82 99 249 54 347 l-22 47 -54 0
c-66 0 -127 -30 -333 -165 -253 -166 -366 -293 -582 -657 -111 -187 -162 -286
-169 -330 -5 -33 -2 -41 28 -71 35 -34 56 -43 326 -127 133 -42 173 -74 180
-147 9 -94 -41 -272 -104 -372 -105 -165 -287 -265 -483 -265 -222 0 -390 106
-490 309 -59 122 -81 217 -87 380 -6 166 6 240 74 446 41 125 47 137 72 142
44 9 82 47 112 111 63 133 20 212 -128 236 -31 5 -58 11 -60 14 -3 3 27 66 67
141 40 75 70 139 67 142 -14 13 -86 -10 -110 -35 -39 -42 -136 -182 -164 -236
-59 -116 -52 -251 18 -318 34 -33 36 -38 22 -50 -24 -19 -97 -136 -116 -186
-10 -23 -24 -84 -32 -135 -23 -150 -79 -696 -80 -777 0 -100 33 -198 101 -301
l53 -81 -102 7 c-230 15 -348 78 -413 220 -23 49 -24 65 -29 296 -2 134 -10
336 -17 449 -19 323 -16 791 6 1000 14 132 20 288 23 636 l5 462 62 -29 c137
-63 382 -65 611 -4 168 44 310 70 468 84 80 8 139 19 185 37 55 21 321 79 328
71 1 -1 7 -36 13 -77 27 -195 167 -323 336 -307 134 13 340 123 478 255 97 94
110 115 118 190 5 50 12 70 32 90 25 24 31 26 114 22 193 -8 247 4 283 62 37
61 22 217 -31 321 -53 102 -146 183 -311 267 -109 57 -125 58 -176 15 -62 -52
-73 -94 -88 -332 -7 -118 -11 -221 -7 -227 3 -6 3 -8 -1 -4 -5 4 -45 -26 -91
-65 -179 -156 -308 -196 -429 -135 -33 17 -37 22 -25 32 65 49 192 163 225
203 130 156 214 354 214 505 0 62 -25 169 -50 219 -54 106 -157 207 -274 266
-26 13 -45 28 -40 32 5 4 41 20 79 36 39 16 124 55 189 88 65 32 190 84 276
116 87 31 184 73 216 92 33 19 106 81 164 139 108 107 156 179 179 268 l12 42
80 0 79 0 -5 -77z"/>
<path d="M1825 5823 c-137 -52 -254 -98 -258 -102 -5 -5 15 -48 43 -96 40 -66
49 -89 39 -95 -7 -5 -63 -23 -123 -40 -61 -17 -133 -39 -160 -48 -85 -29 -87
-72 -3 -72 54 0 312 66 374 96 90 43 110 112 58 199 -15 26 -25 48 -23 50 1 2
64 22 138 45 74 23 141 47 149 53 20 17 31 52 23 80 l-7 24 -250 -94z"/>
<path d="M6580 5018 c-60 -30 -134 -105 -150 -152 -25 -76 15 -152 113 -220
l57 -39 -160 -106 c-88 -58 -160 -110 -160 -114 0 -12 66 -37 98 -37 35 0 73
15 205 81 207 103 278 175 317 318 24 89 -19 180 -115 247 -72 49 -138 56
-205 22z"/>
<path d="M4295 4576 l-80 -85 -45 35 c-126 96 -146 106 -218 112 l-68 4 -41
-48 c-55 -67 -119 -168 -134 -212 -12 -35 -11 -37 29 -73 73 -65 239 -139 310
-139 17 0 45 19 83 55 63 60 117 89 146 78 10 -4 36 -21 57 -40 56 -47 89 -44
166 14 108 81 157 168 130 234 -27 63 -153 149 -221 149 -30 0 -44 -10 -114
-84z"/>
<path d="M5395 4308 c-85 -44 -129 -81 -150 -128 -17 -37 -17 -48 -7 -97 6
-31 25 -85 42 -121 26 -55 34 -92 50 -236 22 -189 28 -226 38 -226 4 0 29 17
57 38 42 32 53 47 73 106 71 209 69 397 -8 609 -18 48 -33 87 -33 87 -1 -1
-29 -15 -62 -32z"/>
<path d="M5986 4044 c-51 -18 -137 -84 -155 -117 -12 -23 -11 -33 9 -88 43
-113 125 -170 224 -154 47 8 149 54 189 85 22 18 27 30 27 67 0 60 -22 102
-80 157 -68 64 -135 79 -214 50z"/>
<path d="M4090 3539 c-91 -65 -203 -165 -232 -206 -16 -24 -32 -43 -36 -43 -4
0 -20 21 -36 48 -50 79 -114 156 -146 175 -19 11 -60 21 -104 24 -70 5 -76 4
-99 -20 -36 -35 -44 -87 -22 -145 13 -34 43 -71 110 -137 109 -107 142 -167
186 -343 16 -64 31 -121 32 -125 4 -12 140 239 161 296 28 75 104 150 201 198
136 67 175 151 118 254 -36 65 -68 71 -133 24z"/>
<path d="M5500 3466 c-14 -8 -51 -44 -83 -80 -32 -36 -62 -66 -67 -66 -4 0
-40 25 -79 55 -88 69 -125 85 -199 85 l-59 0 -51 -63 c-28 -34 -70 -98 -93
-142 l-43 -78 46 -42 c56 -51 169 -108 260 -132 l67 -17 58 55 c69 66 116 93
148 85 13 -3 42 -22 65 -41 23 -19 51 -35 61 -35 36 0 99 40 163 103 71 70 85
107 70 179 -8 36 -18 48 -80 91 -79 55 -139 69 -184 43z"/>
<path d="M3873 2681 c-50 -31 -104 -113 -200 -306 -151 -304 -275 -506 -434
-706 -93 -116 -262 -289 -356 -362 -56 -44 -61 -51 -51 -72 l10 -23 222 74
c121 41 275 91 341 110 201 60 293 119 368 231 67 101 91 184 138 493 49 320
58 504 26 553 -21 32 -23 32 -64 8z"/>
</g>
</svg>
