<svg xmlns="http://www.w3.org/2000/svg" width="401" height="401" viewBox="0 0 401 401" xmlns:xlink="http://www.w3.org/1999/xlink"><defs><path id="a" d="M428.465 350.585c.341 10.916-3.245 20.126-9.562 26.777-4.61 4.946-10.586 8.357-17.586 10.404.512 10.745-1.878 19.273-6.66 25.924-5.463 7.675-13.658 12.11-23.732 13.985-23.733 4.094-58.052 2.047-79.736 1.706-9.05.341-17.586.853-23.904 1.535-13.659 1.194-53.783 1.535-68.637.341-11.61-.853-26.124-3.07-37.051-3.07H146.572a90.208 90.208 0 0 1-3.586-.512c-10.244-1.876-18.44-6.31-23.904-13.985-4.78-6.651-7.17-15.18-6.659-25.924-7-2.047-12.976-5.458-17.586-10.404-15.537-16.373-6.659-35.987-10.757-55.43-3.927-18.249-1.024-58.67-1.365-74.361-.171-10.574 2.22-12.621 2.39-22.002.512-16.032-1.025-12.45 2.732-24.9 3.927-12.621-2.561-25.754-2.561-37.693-.342-16.373 7.342-29.164 21.684-35.304-.854-5.8 3.585-20.296 8.366-21.149 2.561-5.97 6.488-11.086 12.806-15.18 6.317-4.092 42.856-11.938 55.832-6.821 1.878.34 15.708.34 17.757-.17 8.878-2.56 32.953 1.364 42.344 1.193 8.707-.17 24.586-1.194 32.27-2.047 9.22-.852 58.564-3.07 70.174.341 5.464.512 14 1.535 19.123 1.535 7.683 0 18.098 3.753 24.074 8.87 9.903 9.21 11.61 18.419 11.782 31.552 30.562 11.086 24.928 29.676 29.708 52.018 2.05 9.722-.17 38.887-2.731 48.267-1.879 8.869.17 46.732 1.878 57.306.17 1.194 2.22 58.33-1.708 61.229-.17 1.876-.17 3.582-.17 5.287v.682zm-50.71-194.601c5.805 3.581 12.293 4.434 16.903-.512 2.902-3.07 5.976-5.287 9.22-8.187a21.695 21.695 0 0 0-4.61-3.07c-5.635-2.217-12.635-2.046-18.61-2.387 2.902-16.544 7.853-34.964-14.514-38.375-1.707-.17-7.342 0-9.39 0-10.074 0-20.148.17-30.222.17l2.732 8.699c-11.269 9.21-20.66 18.59-16.903 34.452.683 3.07.854 6.48.341 9.55-.17 1.877-2.22 3.582-3.585 5.288-1.537-1.194-3.586-2.047-4.61-3.752-2.39-4.435-4.781-9.04-6.318-13.815-1.366-4.435-4.097-6.822-8.366-7.504-3.927-.683-7.683-1.194-12.123-1.706 0 12.962 0 25.924.171 39.057 0 2.217-.17 4.093-.17 5.799-.342 20.295 22.537 16.032 32.611 6.14 3.415-3.241 7-8.358 11.44-6.14 7.854 3.752 14.854 6.822 21-.171 5.806-6.481 11.44-15.52 21.514-10.404 1.537.682 4.269-.17 6.317-2.217 2.39-2.558 4.44-6.993 7.172-10.915zm29.025-4.605c-.682 11.597-10.756 25.071-20.488 26.094-4.098.341-8.367 4.094-11.782 7.164-3.585 3.07-6.317 6.14-11.951 4.605-2.22-.683-5.976.682-8.196 2.387-3.927 2.9-6.659 7.846-10.586 10.916-10.074 7.504-6.83-2.73-15.879 0-6.659 2.046-12.464 4.093-17.757 9.04-.341.34-.683.681-1.024 1.193-20.66 21.149-46.271 0-46.442-22.513 0-5.458-1.024-10.745-.683-16.203 1.025-23.195 2.22-46.56 3.415-69.756h-8.025c0 2.047-1.024 4.775-2.56 7.504-3.416 6.481-12.806 15.35-21.002 18.079-21.855 7.334-10.415 4.946-32.782 13.815 30.221 13.644 19.464 44.173.512 58.159-1.195 1.193-2.561 2.387-4.098 3.41.171 0 .171.171.342.342 13.66 9.21 28.684-13.645 27.49-9.38-.855 2.899.34-6.311.34-10.234.171-2.9.342-5.97.513-9.551.512-5.97 5.122-11.427 9.049-9.38 8.879 4.434 18.099 8.698 21.001 19.784 3.073 11.597-.512 16.202-12.464 14.667-5.293-.682-9.561-.852-9.22 6.993.342 5.628-23.05 24.39-34.831 20.467-9.562-3.07-12.293-11.257-11.952-19.102-.341 0-.854.17-1.366.34-1.878.512-5.464.853-7.512 1.365-.854.17-1.879.341-2.732.341-3.586.682-5.635 2.558-9.22 3.07-4.781.853-10.415.512-15.196 1.876-1.537.341-3.927.341-5.293.682-2.22.683-4.44 1.365-6.659 1.877-2.903.852-6.147 1.535-8.708 2.046-4.098 1.024-12.635.512-16.732 0-2.22-.34-4.61-.853-6.489-1.705-1.195-.512-2.39-1.194-3.414-2.047.512 19.955.512 40.08-1.537 59.523-2.561 25.413 1.707 52.53.854 78.114.512 3.922 2.049 7.163 4.439 9.55 3.244 3.582 8.537 5.8 14.684 6.14l8.195.512c-5.464-6.651-8.708-14.497-7.854-21.319 1.708-13.132 2.39-26.265 4.44-39.398.682-4.434 3.414-8.698 6.146-12.45.512-.682 1.195-1.194 1.878-1.706-2.22-1.023-3.927-2.729-4.61-5.628-.683-3.24-.512-7.504.854-10.404 2.22-4.946 5.634-9.21 9.05-13.473 1.024-1.365 3.072-1.706 5.804-1.535-1.195 2.217-2.39 4.605-3.585 6.822-1.195 2.387-2.561 4.775-4.098 7.675 10.586.17 13.83 4.605 9.903 12.62-1.366 3.241-3.586 5.288-7 5.288-.683 2.217-1.196 4.605-2.05 6.822-4.78 12.11-5.634 24.39-1.365 36.84 4.61 13.473 14.513 20.636 27.83 20.125 12.806-.682 23.904-10.063 26.807-22.854 2.902-12.11 1.878-13.815-10.074-17.226-19.123-5.458-18.781-5.458-8.878-22.513 7.341-12.621 14.513-25.072 26.977-33.429 5.122-3.41 10.415-6.993 16.05-9.892 2.048-1.023 6.487-1.706 7.341-.512 1.708 2.218 2.561 5.8 2.39 8.87-.17 3.07-1.365 6.31-2.902 9.209-.683 1.535-2.732 3.07-4.44 3.411-12.463 2.217-28 12.962-34.489 24.56 11.781 1.876 17.416 10.062 23.391 19.613 9.733 15.691 3.586 28.824-4.097 41.616-9.05 15.179-23.733 22.001-40.978 24.9-10.415 1.706-22.367-4.946-30.733-13.985l-1.366 8.187c-.342 1.535-.513 2.728-.683 3.922-.683 7.846.341 13.645 3.073 17.397 2.561 3.41 6.83 5.628 12.293 6.651.683 0 1.366.17 1.879.17 4.439.513 9.561.854 15.195 1.024 0-.17 52.589-2.046 62.15-3.07 3.073-.34 19.123 1.194 22.88.682 17.586-4.263 57.197-.34 77.345.342 8.195.17 24.757-1.876 32.27.682 8.878.17 17.928-.682 22.196-6.481 2.732-3.752 3.927-9.551 3.074-17.397-.171-1.194-.342-2.387-.683-3.922l-1.708-10.063 10.245-.682c6.146-.341 11.44-2.559 14.683-6.14 2.05-2.047 4.952-10.745 4.781-13.986l-.17-.34c-.854-12.451.17-22.343-1.196-36.158 0-.341-.17-3.923-.341-9.21-11.952 1.706-24.075 3.752-36.027 5.97-3.073.511-5.976 2.899-8.878 4.263.17.853.341 1.706.341 2.559 7.854.682 15.538 1.364 23.392 2.046 8.366.512 10.756 4.776 5.976 11.598-8.367 12.11-16.904 23.877-25.953 35.475-4.44 5.458-9.39 8.698-14.684 9.21-11.951 1.194-20.66-5.458-26.977-10.916l-.17.342c-3.074 18.76-50.027 20.295-52.93-8.016-1.195-11.94-3.073-23.707-3.244-35.476-.342-13.985 1.024-27.97 1.195-41.956.17-7.334-1.366-.853-.512-8.016.854-6.48 3.927-12.62 5.976-18.931 1.366.17 2.56.34 3.756.511.512 2.047 1.366 4.094 1.366 5.97-.683 32.064 2.049 49.972 6.659 81.524 1.707 11.94 14 18.08 24.587 9.892 3.244-2.558 5.293-6.14 5.293-6.14 8.537-15.179 18.44 5.458 23.733 6.311 12.464 2.047 29.708-4.434 34.49-17.055-10.928-1.365-21.856-2.9-33.466-4.605 2.22-15.52 20.318-29.165 34.66-37.352-.512-4.434-.853-9.039-1.195-13.644-.17-.853 1.195-2.388 2.22-3.07 6.659-4.775 24.416-2.217 29.88 4.264h.17c-.17-19.955-.17-41.274.683-42.297v-.341c-2.39-22.343 7.683-67.369-2.22-85.96zm-128.909-47.244v17.738c.342-.341.683-.512 1.195-.682 10.416-4.094 18.27 2.558 24.416 10.233 4.61-8.698 9.22-16.544 13.489-24.73.512-1.194.854-2.047.854-2.9-13.318 0-26.636.17-39.954.341zm-111.493 38.887c4.439-2.73 11.098-7.334 16.22-10.234 9.561-5.457 17.757-9.21 26.465-13.132 13.147-5.97 24.245-9.551 36.88-15.18-25.44.171-51.052.171-76.15-.34-7.343-.171-14.172-.683-21.855-.683-.513.17-1.196.17-1.879.341-5.463 1.024-9.732 3.07-12.293 6.652-6.147 8.869-2.22 21.49-.683 31.382-10.415.852-21.343-.341-27.49 10.062 0 .341-2.048 16.544-2.048 17.908 0 5.629 0 11.257.17 17.056.171.17.513.34.513.511 4.268 20.979 35.002 11.94 50.027 7.334 1.707-.511 5.805-1.535 7.683-1.876 7.854-1.364 15.88-2.729 22.709-4.605 5.463-2.388 10.586-4.946 12.293-5.116 2.22-.341 2.732-3.411 3.586-6.481.512-2.388.683-4.605.853-5.629 1.025-4.946-2.56-8.527-7.683-9.892-9.561-2.729-17.586-1.023-25.611 4.094l-1.707-22.172zm30.733 251.054c21.855-16.714 35.343-39.568 46.612-64.128 1.195-2.217 8.366-12.109 9.562-5.799.512 2.559 1.195 5.117.853 7.505-1.024 9.892-2.732 19.613-4.098 29.335-1.878 12.962-8.024 21.83-21.171 25.413-10.416 2.899-20.49 6.651-30.734 10.062-.341-.853-.683-1.535-1.024-2.388zM323.8 291.233c-6.489-3.411-7.342-8.528-16.904-7.164-2.902 2.559-8.025 9.551-9.39 14.327 3.756 4.264 11.951 8.528 18.78 9.21 16.221-18.42 9.392 6.992 24.588-8.357 4.097-4.094 3.756-4.094 3.244-10.575-12.294-9.55-12.123-6.48-20.319 2.559zm62.32-64.64c-11.098-6.31-11.952-12.792-3.244-19.273 3.756-2.729 7.512-3.41 11.61-.682 4.78 3.07 8.196 7.334 6.488 13.133-1.024 3.922-3.585 8.186-6.83 10.574-5.292 3.752-11.439 6.481-17.415 9.04-1.878.852-4.44 0-7.171-1.706 2.561-1.706 5.122-3.582 7.854-5.287 2.732-1.876 5.464-3.582 8.708-5.8zm-39.27 34.622c4.61 20.808 21 7.675 22.879 6.652.341-4.776.683-5.458-1.878-8.698-6.318-8.699-15.196-5.117-21.002 2.046zM139.23 180.202c-2.05-3.24-3.586-5.799-5.464-9.21a2626.162 2626.162 0 0 1 26.123-9.892c1.025 3.411.171 5.287-3.073 6.31-4.098 1.024-8.196 2.559-12.464 3.923.341.683.512 1.194.683 1.365 3.756 4.434 2.903 9.04-2.39 11.256-4.61 1.876-9.391 2.73-14.172 3.923-1.707.512-3.585.853-5.293.853-.854 0-1.707-.853-2.561-1.365.683-.682 1.024-1.876 1.878-2.046 3.586-1.194 7.342-2.047 11.098-3.07 1.708-.512 3.244-1.194 5.635-2.047zm127.714 52.19c-6.488-3.411-7.171-8.528-16.904-7.164-2.731 2.559-8.024 9.722-9.22 14.327 3.586 4.264 11.782 8.698 18.782 9.21 16.22-18.42 9.39 6.992 24.587-8.357 6.317-6.31 4.268-10.575-2.732-14.839-6.66-3.922-7.854-.511-14.513 6.823zm61.808 7.675c6.147 12.791 6.317 25.241 1.024 37.692-.853 1.876-3.756 2.9-5.634 4.434-1.537-5.97-1.878-18.76-3.073-21.148-5.976-11.257-4.952-15.35 7.683-20.978zm-85.541 79.136c-2.39-9.039-3.244-18.76-11.952-24.73a23.293 23.293 0 0 1-2.903-2.9c-2.56-3.41-3.244-7.845-.512-10.744 1.537-1.535 5.805-.853 8.708-.17 1.878.34 3.586 2.387 4.951 3.922 2.05 2.558 3.586 5.287 5.635 8.357 1.366-1.876 2.22-3.581 3.415-4.775 3.585-3.24 7.342-6.31 11.269-9.21 1.024-.682 3.756-.682 4.097 0 1.366 2.217 3.074 5.116 2.561 7.334-.512 2.728-2.902 5.969-5.292 6.822-6.66 2.387-11.099 6.822-12.806 13.132l-7.171 12.962z"/><filter id="b" width="101.4%" height="101.4%" x="-.7%" y="-.7%" filterUnits="objectBoundingBox"><feGaussianBlur stdDeviation="2" in="SourceAlpha" result="shadowBlurInner1"/><feOffset dy="1" in="shadowBlurInner1" result="shadowOffsetInner1"/><feComposite in="shadowOffsetInner1" in2="SourceAlpha" operator="arithmetic" k2="-1" k3="1" result="shadowInnerInner1"/><feColorMatrix values="0 0 0 0 0 0 0 0 0 0 0 0 0 0 0 0 0 0 0.17 0" in="shadowInnerInner1"/></filter></defs><g fill="none" fill-rule="evenodd" transform="translate(-56 -56)"><path d="M56 56h400v400H56z"/><use fill="#F2F2F2" xlink:href="#a"/><use fill="#000" filter="url(#b)" xlink:href="#a"/></g></svg>