<svg width="90px" height="13px" viewBox="0 0 90 13" version="1.1" xmlns="http://www.w3.org/2000/svg" xmlns:xlink="http://www.w3.org/1999/xlink">
    <g id="wave" stroke="none" stroke-width="1" fill="none">
        <g id="bar" transform="translate(0, 2)" stroke-width="2" stroke="#262626">
            <path d="M0,9 C4.61057961,9 4.30320764,0 9,0 C13.6967924,0 13.3032076,9 18,9 C22.6967924,9 22.3032076,0 27,0 C31.6967924,0 31.3032076,9 36,9 C40.6967924,9 40.3032076,0 45,0 C49.6967924,0 49.3032076,9 54,9 C58.6967924,9 58.3032076,0 63,0 C67.6967924,0 67.3032076,9 72,9 C76.6967924,9 76.3032076,0 81,0 C85.6967924,0 85.3032076,9 90,9"></path>
        </g>
    </g>
</svg>
